Adsworth-72PTG0XT1.ufo
<glyph name="D" format="2">
  <advance width="1749.0"/>
  <outline>
    <contour>
      <point x="244.0" y="0.0" type="line"/>
      <point x="244.0" y="1500.0" type="line"/>
      <point x="214.0" y="1500.0" type="line"/>
      <point x="214.0" y="0.0" type="line"/>
    </contour>
    <contour>
      <point x="957.0" y="-8.0" type="line" smooth="yes"/>
      <point x="1237.0" y="-8.0"/>
      <point x="1630.0" y="412.0"/>
      <point x="1630.0" y="755.0" type="qcurve" smooth="yes"/>
      <point x="1630.0" y="740.0" type="line" smooth="yes"/>
      <point x="1630.0" y="1088.0"/>
      <point x="1234.0" y="1513.0"/>
      <point x="954.0" y="1514.0" type="qcurve" smooth="yes"/>
      <point x="236.0" y="1514.0" type="line"/>
      <point x="236.0" y="1500.0" type="line"/>
      <point x="918.0" y="1500.0" type="line" smooth="yes"/>
      <point x="1212.0" y="1500.0"/>
      <point x="1603.0" y="1095.0"/>
      <point x="1603.0" y="736.0" type="qcurve" smooth="yes"/>
      <point x="1603.0" y="757.0" type="line" smooth="yes"/>
      <point x="1603.0" y="401.0"/>
      <point x="1217.0" y="0.0"/>
      <point x="939.0" y="0.0" type="qcurve" smooth="yes"/>
      <point x="236.0" y="0.0" type="line"/>
      <point x="236.0" y="-8.0" type="line"/>
    </contour>
  </outline>
</glyph>
<glyph name="E" format="2">
  <advance width="1346.0"/>
  <outline>
    <contour>
      <point x="244.0" y="0.0" type="line"/>
      <point x="244.0" y="1500.0" type="line"/>
      <point x="214.0" y="1500.0" type="line"/>
      <point x="214.0" y="0.0" type="line"/>
    </contour>
    <contour>
      <point x="1110.0" y="816.0" type="line"/>
      <point x="225.0" y="816.0" type="line"/>
      <point x="225.0" y="798.0" type="line"/>
      <point x="1110.0" y="798.0" type="line"/>
    </contour>
    <contour>
      <point x="1270.0" y="1518.0" type="line"/>
      <point x="225.0" y="1518.0" type="line"/>
      <point x="225.0" y="1500.0" type="line"/>
      <point x="1270.0" y="1500.0" type="line"/>
    </contour>
    <contour>
      <point x="1270.0" y="0.0" type="line"/>
      <point x="225.0" y="0.0" type="line"/>
      <point x="225.0" y="-20.0" type="line"/>
      <point x="1270.0" y="-20.0" type="line"/>
    </contour>
  </outline>
</glyph>
<glyph name="F" format="2">
  <advance width="1242.0"/>
  <outline>
    <contour>
      <point x="244.0" y="0.0" type="line"/>
      <point x="244.0" y="1500.0" type="line"/>
      <point x="214.0" y="1500.0" type="line"/>
      <point x="214.0" y="0.0" type="line"/>
    </contour>
    <contour>
      <point x="1000.0" y="785.0" type="line"/>
      <point x="225.0" y="785.0" type="line"/>
      <point x="225.0" y="765.0" type="line"/>
      <point x="1000.0" y="765.0" type="line"/>
    </contour>
    <contour>
      <point x="1180.0" y="1518.0" type="line"/>
      <point x="225.0" y="1518.0" type="line"/>
      <point x="225.0" y="1500.0" type="line"/>
      <point x="1180.0" y="1500.0" type="line"/>
    </contour>
  </outline>
</glyph>
<glyph name="H" format="2">
  <advance width="1792.0"/>
  <outline>
    <contour>
      <point x="256.0" y="0.0" type="line"/>
      <point x="256.0" y="1500.0" type="line"/>
      <point x="226.0" y="1500.0" type="line"/>
      <point x="226.0" y="0.0" type="line"/>
    </contour>
    <contour>
      <point x="1566.0" y="0.0" type="line"/>
      <point x="1566.0" y="1500.0" type="line"/>
      <point x="1536.0" y="1500.0" type="line"/>
      <point x="1536.0" y="0.0" type="line"/>
    </contour>
    <contour>
      <point x="1556.0" y="818.0" type="line"/>
      <point x="236.0" y="818.0" type="line"/>
      <point x="236.0" y="792.0" type="line"/>
      <point x="1556.0" y="792.0" type="line"/>
    </contour>
  </outline>
</glyph>
<glyph name="P" format="2">
  <advance width="1375.0"/>
  <outline>
    <contour>
      <point x="244.0" y="0.0" type="line"/>
      <point x="244.0" y="1500.0" type="line"/>
      <point x="213.0" y="1500.0" type="line"/>
      <point x="213.0" y="0.0" type="line"/>
    </contour>
    <contour>
      <point x="793.0" y="687.0" type="qcurve" smooth="yes"/>
      <point x="222.0" y="687.0" type="line"/>
      <point x="222.0" y="670.0" type="line"/>
      <point x="851.0" y="670.0" type="line" smooth="yes"/>
      <point x="1071.0" y="670.0"/>
      <point x="1343.0" y="849.0"/>
      <point x="1343.0" y="1114.0" type="qcurve" smooth="yes"/>
      <point x="1343.0" y="1120.0" type="line" smooth="yes"/>
      <point x="1343.0" y="1321.0"/>
      <point x="1107.0" y="1523.0"/>
      <point x="902.0" y="1523.0" type="qcurve" smooth="yes"/>
      <point x="222.0" y="1523.0" type="line"/>
      <point x="222.0" y="1500.0" type="line"/>
      <point x="877.0" y="1500.0" type="line" smooth="yes"/>
      <point x="1075.0" y="1500.0"/>
      <point x="1317.0" y="1300.0"/>
      <point x="1317.0" y="1118.0" type="qcurve" smooth="yes"/>
      <point x="1317.0" y="1104.0" type="line" smooth="yes"/>
      <point x="1317.0" y="866.0"/>
      <point x="1078.0" y="686.0"/>
    </contour>
  </outline>
</glyph>
<glyph name="Q" format="2">
  <advance width="2102.0"/>
  <outline>
    <contour>
      <point x="1035.0" y="-17.0" type="line" smooth="yes"/>
      <point x="614.0" y="-17.0"/>
      <point x="142.0" y="361.0"/>
      <point x="142.0" y="752.0" type="qcurve" smooth="yes"/>
      <point x="142.0" y="726.0" type="line" smooth="yes"/>
      <point x="142.0" y="1110.0"/>
      <point x="634.0" y="1513.0"/>
      <point x="1042.0" y="1513.0" type="qcurve" smooth="yes"/>
      <point x="1052.0" y="1513.0" type="line" smooth="yes"/>
      <point x="1458.0" y="1513.0"/>
      <point x="1961.0" y="1117.0"/>
      <point x="1961.0" y="746.0" type="qcurve" smooth="yes"/>
      <point x="1961.0" y="744.0" type="line" smooth="yes"/>
      <point x="1961.0" y="358.0"/>
      <point x="1449.0" y="-17.0"/>
      <point x="1046.0" y="-17.0" type="qcurve" smooth="yes"/>
    </contour>
    <contour>
      <point x="1061.0" y="-46.0" type="line" smooth="yes"/>
      <point x="1485.0" y="-46.0"/>
      <point x="1994.0" y="359.0"/>
      <point x="1994.0" y="739.0" type="qcurve" smooth="yes"/>
      <point x="1994.0" y="719.0" type="line" smooth="yes"/>
      <point x="1994.0" y="1104.0"/>
      <point x="1490.0" y="1528.0"/>
      <point x="1061.0" y="1528.0" type="qcurve" smooth="yes"/>
      <point x="1044.0" y="1528.0" type="line" smooth="yes"/>
      <point x="615.0" y="1528.0"/>
      <point x="118.0" y="1120.0"/>
      <point x="118.0" y="729.0" type="qcurve" smooth="yes"/>
      <point x="118.0" y="727.0" type="line" smooth="yes"/>
      <point x="118.0" y="360.0"/>
      <point x="577.0" y="-46.0"/>
      <point x="1044.0" y="-46.0" type="qcurve" smooth="yes"/>
    </contour>
    <contour>
      <point x="1023.0" y="-50.0" type="line"/>
      <point x="2056.0" y="-65.0" type="line"/>
      <point x="2056.0" y="-70.0" type="line"/>
      <point x="1024.0" y="-29.0" type="line"/>
    </contour>
  </outline>
</glyph>
<glyph name="S" format="2">
  <advance width="1559.0"/>
  <outline>
    <contour>
      <point x="1485.0" y="400.0" type="line" smooth="yes"/>
      <point x="1485.0" y="556.0"/>
      <point x="1150.0" y="787.0"/>
      <point x="775.0" y="838.0" type="qcurve" smooth="yes"/>
      <point x="403.0" y="882.0"/>
      <point x="136.0" y="1044.0"/>
      <point x="136.0" y="1185.0" type="qcurve" smooth="yes"/>
      <point x="136.0" y="1203.0" type="line" smooth="yes"/>
      <point x="136.0" y="1338.0"/>
      <point x="424.0" y="1513.0"/>
      <point x="755.0" y="1513.0" type="qcurve" smooth="yes"/>
      <point x="766.0" y="1513.0" type="line" smooth="yes"/>
      <point x="1130.0" y="1513.0"/>
      <point x="1422.0" y="1338.0"/>
      <point x="1406.0" y="1144.0" type="qcurve" smooth="yes"/>
      <point x="1406.0" y="1115.0" type="line"/>
      <point x="1441.0" y="1116.0" type="line"/>
      <point x="1441.0" y="1149.0" type="line" smooth="yes"/>
      <point x="1441.0" y="1343.0"/>
      <point x="1147.0" y="1524.0"/>
      <point x="771.0" y="1524.0" type="qcurve" smooth="yes"/>
      <point x="754.0" y="1524.0" type="line" smooth="yes"/>
      <point x="423.0" y="1524.0"/>
      <point x="107.0" y="1336.0"/>
      <point x="107.0" y="1195.0" type="qcurve" smooth="yes"/>
      <point x="107.0" y="1155.0" type="line" smooth="yes"/>
      <point x="107.0" y="1035.0"/>
      <point x="390.0" y="836.0"/>
      <point x="777.0" y="800.0" type="qcurve" smooth="yes"/>
      <point x="1168.0" y="768.0"/>
      <point x="1450.0" y="550.0"/>
      <point x="1450.0" y="378.0" type="qcurve" smooth="yes"/>
      <point x="1450.0" y="381.0" type="line" smooth="yes"/>
      <point x="1450.0" y="206.0"/>
      <point x="1128.0" y="-18.0"/>
      <point x="784.0" y="-18.0" type="qcurve" smooth="yes"/>
      <point x="780.0" y="-18.0" type="line" smooth="yes"/>
      <point x="409.0" y="-18.0"/>
      <point x="104.0" y="211.0"/>
      <point x="104.0" y="386.0" type="qcurve" smooth="yes"/>
      <point x="104.0" y="434.0" type="line"/>
      <point x="55.0" y="434.0" type="line"/>
      <point x="55.0" y="375.0" type="line" smooth="yes"/>
      <point x="55.0" y="203.0"/>
      <point x="382.0" y="-38.0"/>
      <point x="776.0" y="-38.0" type="qcurve" smooth="yes"/>
      <point x="786.0" y="-38.0" type="line" smooth="yes"/>
      <point x="1175.0" y="-38.0"/>
      <point x="1485.0" y="252.0"/>
      <point x="1485.0" y="388.0" type="qcurve" smooth="yes"/>
    </contour>
  </outline>
</glyph>
<glyph name="U" format="2">
  <advance width="1711.0"/>
  <outline>
    <contour>
      <point x="174.0" y="1500.0" type="line"/>
      <point x="144.0" y="1500.0" type="line"/>
      <point x="144.0" y="592.0" type="line" smooth="yes"/>
      <point x="144.0" y="280.0"/>
      <point x="546.0" y="-23.0"/>
      <point x="846.0" y="-23.0" type="qcurve" smooth="yes"/>
      <point x="857.0" y="-23.0" type="line" smooth="yes"/>
      <point x="1176.0" y="-23.0"/>
      <point x="1563.0" y="308.0"/>
      <point x="1563.0" y="592.0" type="qcurve" smooth="yes"/>
      <point x="1563.0" y="1500.0" type="line"/>
      <point x="1537.0" y="1500.0" type="line"/>
      <point x="1529.0" y="588.0" type="line" smooth="yes"/>
      <point x="1527.0" y="307.0"/>
      <point x="1214.0" y="-19.0"/>
      <point x="857.0" y="-19.0" type="qcurve" smooth="yes"/>
      <point x="850.0" y="-19.0" type="line" smooth="yes"/>
      <point x="562.0" y="-19.0"/>
      <point x="174.0" y="273.0"/>
      <point x="174.0" y="614.0" type="qcurve" smooth="yes"/>
    </contour>
  </outline>
</glyph>
<glyph name="V" format="2">
  <advance width="1500.0"/>
  <outline>
    <contour>
      <point x="745.0" y="0.0" type="line"/>
      <point x="-10.0" y="1500.0" type="line"/>
      <point x="-37.0" y="1500.0" type="line"/>
      <point x="758.0" y="-78.0" type="line"/>
      <point x="1535.0" y="1500.0" type="line"/>
      <point x="1520.0" y="1500.0" type="line"/>
      <point x="751.0" y="0.0" type="line"/>
    </contour>
  </outline>
</glyph>
<glyph name="W" format="2">
  <advance width="2290.0"/>
  <outline>
    <contour>
      <point x="566.0" y="0.0" type="line"/>
      <point x="21.0" y="1500.0" type="line"/>
      <point x="-27.0" y="1500.0" type="line"/>
      <point x="580.0" y="-123.0" type="line"/>
      <point x="1113.0" y="1500.0" type="line"/>
      <point x="1139.0" y="1500.0" type="line"/>
      <point x="1679.0" y="-118.0" type="line"/>
      <point x="2262.0" y="1500.0" type="line"/>
      <point x="2220.0" y="1500.0" type="line"/>
      <point x="1694.0" y="0.0" type="line"/>
      <point x="1661.0" y="0.0" type="line"/>
      <point x="1131.0" y="1573.0" type="line"/>
      <point x="1127.0" y="1573.0" type="line"/>
      <point x="595.0" y="0.0" type="line"/>
    </contour>
  </outline>
</glyph>
<glyph name="Z" format="2">
  <advance width="1379.0"/>
  <outline>
    <contour>
      <point x="1320.0" y="0.0" type="line"/>
      <point x="34.0" y="0.0" type="line"/>
      <point x="29.0" y="-18.0" type="line"/>
      <point x="1318.0" y="1518.0" type="line"/>
      <point x="64.0" y="1518.0" type="line"/>
      <point x="64.0" y="1500.0" type="line"/>
      <point x="1300.0" y="1500.0" type="line"/>
      <point x="1300.0" y="1523.0" type="line"/>
      <point x="11.0" y="-18.0" type="line"/>
      <point x="1320.0" y="-18.0" type="line"/>
    </contour>
  </outline>
</glyph>
<glyph name="a" format="2">
  <advance width="1313.0"/>
  <outline>
    <contour>
      <point x="150.0" y="913.0" type="line"/>
      <point x="152.0" y="904.0"/>
      <point x="420.0" y="1014.0"/>
      <point x="620.0" y="1014.0" type="qcurve" smooth="yes"/>
      <point x="879.0" y="1014.0"/>
      <point x="1105.0" y="792.0"/>
      <point x="1109.0" y="590.0" type="qcurve" smooth="yes"/>
      <point x="1110.0" y="0.0" type="line"/>
      <point x="1141.0" y="0.0" type="line"/>
      <point x="1141.0" y="624.0" type="line" smooth="yes"/>
      <point x="1141.0" y="833.0"/>
      <point x="867.0" y="1053.0"/>
      <point x="615.0" y="1053.0" type="qcurve" smooth="yes"/>
      <point x="453.0" y="1053.0"/>
      <point x="175.0" y="968.0"/>
      <point x="144.0" y="942.0" type="qcurve"/>
    </contour>
    <contour>
      <point x="1114.0" y="126.0" type="line"/>
      <point x="1089.0" y="89.0"/>
      <point x="762.0" y="-25.0"/>
      <point x="571.0" y="-25.0" type="qcurve" smooth="yes"/>
      <point x="326.0" y="-25.0"/>
      <point x="66.0" y="141.0"/>
      <point x="66.0" y="289.0" type="qcurve" smooth="yes"/>
      <point x="66.0" y="432.0"/>
      <point x="317.0" y="610.0"/>
      <point x="624.0" y="610.0" type="qcurve" smooth="yes"/>
      <point x="799.0" y="610.0"/>
      <point x="1082.0" y="570.0"/>
      <point x="1117.0" y="557.0" type="qcurve"/>
      <point x="1117.0" y="559.0" type="line"/>
      <point x="1128.0" y="566.0"/>
      <point x="720.0" y="638.0"/>
      <point x="614.0" y="638.0" type="qcurve" smooth="yes"/>
      <point x="362.0" y="638.0"/>
      <point x="45.0" y="450.0"/>
      <point x="45.0" y="283.0" type="qcurve" smooth="yes"/>
      <point x="45.0" y="112.0"/>
      <point x="340.0" y="-71.0"/>
      <point x="607.0" y="-71.0" type="qcurve" smooth="yes"/>
      <point x="761.0" y="-71.0"/>
      <point x="1094.0" y="75.0"/>
      <point x="1114.0" y="133.0" type="qcurve"/>
    </contour>
  </outline>
</glyph>
<glyph name="ampersand" format="2">
  <advance width="1466.0"/>
  <outline>
    <contour>
      <point x="950.0" y="650.0" type="line"/>
      <point x="1535.0" y="828.0" type="line"/>
      <point x="1505.0" y="847.0" type="line"/>
      <point x="922.0" y="668.0" type="line"/>
    </contour>
    <contour>
      <point x="726.0" y="806.0" type="line"/>
      <point x="501.0" y="806.0" type="line" smooth="yes"/>
      <point x="281.0" y="806.0"/>
      <point x="5.0" y="612.0"/>
      <point x="5.0" y="432.0" type="qcurve" smooth="yes"/>
      <point x="5.0" y="428.0" type="line" smooth="yes"/>
      <point x="5.0" y="230.0"/>
      <point x="309.0" y="-19.0"/>
      <point x="644.0" y="-19.0" type="qcurve" smooth="yes"/>
      <point x="657.0" y="-19.0" type="line" smooth="yes"/>
      <point x="1001.0" y="-19.0"/>
      <point x="1359.0" y="281.0"/>
      <point x="1359.0" y="491.0" type="qcurve" smooth="yes"/>
      <point x="1359.0" y="499.0" type="line" smooth="yes"/>
      <point x="1359.0" y="582.0"/>
      <point x="1302.0" y="732.0"/>
      <point x="1278.0" y="773.0" type="qcurve"/>
      <point x="1244.0" y="781.0" type="line"/>
      <point x="1271.0" y="743.0"/>
      <point x="1329.0" y="584.0"/>
      <point x="1329.0" y="513.0" type="qcurve" smooth="yes"/>
      <point x="1329.0" y="491.0" type="line" smooth="yes"/>
      <point x="1329.0" y="286.0"/>
      <point x="992.0" y="-20.0"/>
      <point x="674.0" y="-22.0" type="qcurve" smooth="yes"/>
      <point x="654.0" y="-22.0" type="line" smooth="yes"/>
      <point x="333.0" y="-20.0"/>
      <point x="30.0" y="222.0"/>
      <point x="30.0" y="405.0" type="qcurve" smooth="yes"/>
      <point x="30.0" y="424.0" type="line" smooth="yes"/>
      <point x="30.0" y="606.0"/>
      <point x="235.0" y="775.0"/>
      <point x="427.0" y="790.0" type="qcurve"/>
      <point x="293.0" y="816.0"/>
      <point x="165.0" y="974.0"/>
      <point x="165.0" y="1112.0" type="qcurve" smooth="yes"/>
      <point x="165.0" y="1127.0" type="line" smooth="yes"/>
      <point x="165.0" y="1294.0"/>
      <point x="392.0" y="1512.0"/>
      <point x="550.0" y="1512.0" type="qcurve" smooth="yes"/>
      <point x="556.0" y="1512.0" type="line" smooth="yes"/>
      <point x="727.0" y="1512.0"/>
      <point x="940.0" y="1315.0"/>
      <point x="949.0" y="1138.0" type="qcurve" smooth="yes"/>
      <point x="949.0" y="1103.0" type="line"/>
      <point x="960.0" y="1100.0" type="line"/>
      <point x="960.0" y="1135.0" type="line" smooth="yes"/>
      <point x="960.0" y="1315.0"/>
      <point x="747.0" y="1535.0"/>
      <point x="552.0" y="1535.0" type="qcurve" smooth="yes"/>
      <point x="547.0" y="1535.0" type="line" smooth="yes"/>
      <point x="366.0" y="1535.0"/>
      <point x="145.0" y="1306.0"/>
      <point x="145.0" y="1119.0" type="qcurve" smooth="yes"/>
      <point x="145.0" y="1121.0" type="line" smooth="yes"/>
      <point x="145.0" y="928.0"/>
      <point x="355.0" y="785.0"/>
      <point x="497.0" y="785.0" type="qcurve" smooth="yes"/>
      <point x="726.0" y="786.0" type="line"/>
    </contour>
  </outline>
</glyph>
<glyph name="asterisk" format="2">
  <advance width="1094.0"/>
  <outline>
    <contour>
      <point x="597.0" y="1199.0" type="line"/>
      <point x="292.0" y="812.0" type="line"/>
      <point x="293.0" y="812.0" type="line"/>
      <point x="614.0" y="1181.0" type="line"/>
      <point x="188.0" y="1311.0" type="line"/>
      <point x="191.0" y="1311.0" type="line"/>
      <point x="605.0" y="1174.0" type="line"/>
      <point x="603.0" y="1628.0" type="line"/>
      <point x="595.0" y="1628.0" type="line"/>
      <point x="592.0" y="1174.0" type="line"/>
      <point x="973.0" y="1311.0" type="line"/>
      <point x="971.0" y="1308.0" type="line"/>
      <point x="581.0" y="1184.0" type="line"/>
      <point x="910.0" y="820.0" type="line"/>
      <point x="906.0" y="821.0" type="line"/>
    </contour>
  </outline>
</glyph>
<glyph name="bracketleft" format="2">
  <advance width="858.0"/>
  <outline>
    <contour>
      <point x="352.0" y="-280.0" type="line"/>
      <point x="352.0" y="1500.0" type="line"/>
      <point x="315.0" y="1500.0" type="line"/>
      <point x="315.0" y="-280.0" type="line"/>
    </contour>
    <contour>
      <point x="846.0" y="-280.0" type="line"/>
      <point x="339.0" y="-280.0" type="line"/>
      <point x="339.0" y="-307.0" type="line"/>
      <point x="846.0" y="-307.0" type="line"/>
    </contour>
    <contour>
      <point x="846.0" y="1527.0" type="line"/>
      <point x="334.0" y="1527.0" type="line"/>
      <point x="334.0" y="1500.0" type="line"/>
      <point x="846.0" y="1500.0" type="line"/>
    </contour>
  </outline>
</glyph>
<glyph name="colon" format="2">
  <advance width="920.0"/>
  <outline>
    <contour>
      <point x="460.0" y="3.0" type="line" smooth="yes"/>
      <point x="465.0" y="3.0"/>
      <point x="468.0" y="32.0"/>
      <point x="468.0" y="63.0" type="qcurve" smooth="yes"/>
      <point x="468.0" y="89.0" type="line" smooth="yes"/>
      <point x="468.0" y="120.0"/>
      <point x="467.0" y="150.0"/>
      <point x="461.0" y="150.0" type="qcurve" smooth="yes"/>
      <point x="459.0" y="150.0" type="line" smooth="yes"/>
      <point x="454.0" y="150.0"/>
      <point x="451.0" y="120.0"/>
      <point x="451.0" y="89.0" type="qcurve" smooth="yes"/>
      <point x="451.0" y="63.0" type="line" smooth="yes"/>
      <point x="451.0" y="33.0"/>
      <point x="453.0" y="3.0"/>
      <point x="459.0" y="3.0" type="qcurve" smooth="yes"/>
    </contour>
    <contour>
      <point x="460.0" y="816.0" type="line" smooth="yes"/>
      <point x="465.0" y="816.0"/>
      <point x="468.0" y="845.0"/>
      <point x="468.0" y="876.0" type="qcurve" smooth="yes"/>
      <point x="468.0" y="902.0" type="line" smooth="yes"/>
      <point x="468.0" y="933.0"/>
      <point x="467.0" y="963.0"/>
      <point x="461.0" y="963.0" type="qcurve" smooth="yes"/>
      <point x="459.0" y="963.0" type="line" smooth="yes"/>
      <point x="454.0" y="963.0"/>
      <point x="451.0" y="933.0"/>
      <point x="451.0" y="902.0" type="qcurve" smooth="yes"/>
      <point x="451.0" y="876.0" type="line" smooth="yes"/>
      <point x="451.0" y="846.0"/>
      <point x="453.0" y="816.0"/>
      <point x="459.0" y="816.0" type="qcurve" smooth="yes"/>
    </contour>
  </outline>
</glyph>
<glyph name="comma" format="2">
  <advance width="847.0"/>
  <outline>
    <contour>
      <point x="212.0" y="-90.0" type="line"/>
      <point x="463.0" y="129.0" type="line" smooth="yes"/>
      <point x="493.0" y="146.0"/>
      <point x="512.0" y="179.0"/>
      <point x="504.0" y="179.0" type="qcurve" smooth="yes"/>
      <point x="503.0" y="179.0" type="line" smooth="yes"/>
      <point x="499.0" y="179.0"/>
      <point x="514.0" y="156.0"/>
      <point x="487.0" y="112.0" type="qcurve" smooth="yes"/>
      <point x="482.0" y="107.0" type="line" smooth="yes"/>
      <point x="465.0" y="79.0"/>
      <point x="232.0" y="-66.0"/>
      <point x="182.0" y="-112.0" type="qcurve"/>
    </contour>
  </outline>
</glyph>
<glyph name="d" format="2">
  <advance width="1537.0"/>
  <outline>
    <contour>
      <point x="1325.0" y="0.0" type="line"/>
      <point x="1359.0" y="0.0" type="line"/>
      <point x="1359.0" y="1500.0" type="line"/>
      <point x="1325.0" y="1500.0" type="line"/>
    </contour>
    <contour>
      <point x="1317.0" y="492.0" type="qcurve" smooth="yes"/>
      <point x="1317.0" y="477.0" type="line" smooth="yes"/>
      <point x="1317.0" y="155.0"/>
      <point x="963.0" y="-27.0"/>
      <point x="715.0" y="-27.0" type="qcurve" smooth="yes"/>
      <point x="705.0" y="-27.0" type="line" smooth="yes"/>
      <point x="414.0" y="-27.0"/>
      <point x="76.0" y="266.0"/>
      <point x="76.0" y="502.0" type="qcurve" smooth="yes"/>
      <point x="76.0" y="483.0" type="line" smooth="yes"/>
      <point x="76.0" y="717.0"/>
      <point x="418.0" y="1012.0"/>
      <point x="702.0" y="1012.0" type="qcurve" smooth="yes"/>
      <point x="713.0" y="1012.0" type="line" smooth="yes"/>
      <point x="964.0" y="1012.0"/>
      <point x="1317.0" y="861.0"/>
    </contour>
    <contour>
      <point x="1315.0" y="503.0" type="line" smooth="yes"/>
      <point x="1315.0" y="754.0"/>
      <point x="945.0" y="1031.0"/>
      <point x="691.0" y="1031.0" type="qcurve" smooth="yes"/>
      <point x="677.0" y="1031.0" type="line" smooth="yes"/>
      <point x="400.0" y="1031.0"/>
      <point x="29.0" y="751.0"/>
      <point x="29.0" y="495.0" type="qcurve" smooth="yes"/>
      <point x="29.0" y="495.0" type="line" smooth="yes"/>
      <point x="29.0" y="237.0"/>
      <point x="400.0" y="-42.0"/>
      <point x="665.0" y="-42.0" type="qcurve" smooth="yes"/>
      <point x="679.0" y="-42.0" type="line" smooth="yes"/>
      <point x="935.0" y="-42.0"/>
      <point x="1315.0" y="189.0"/>
      <point x="1315.0" y="468.0" type="qcurve" smooth="yes"/>
    </contour>
  </outline>
</glyph>
<glyph name="e" format="2">
  <advance width="1398.0"/>
  <outline>
    <contour>
      <point x="1304.0" y="319.0" type="line"/>
      <point x="1301.0" y="296.0" type="line" smooth="yes"/>
      <point x="1283.0" y="165.0"/>
      <point x="991.0" y="-27.0"/>
      <point x="722.0" y="-27.0" type="qcurve" smooth="yes"/>
      <point x="711.0" y="-27.0" type="line" smooth="yes"/>
      <point x="448.0" y="-27.0"/>
      <point x="92.0" y="246.0"/>
      <point x="92.0" y="487.0" type="qcurve" smooth="yes"/>
      <point x="92.0" y="487.0" type="line" smooth="yes"/>
      <point x="92.0" y="729.0"/>
      <point x="460.0" y="1010.0"/>
      <point x="697.0" y="1010.0" type="qcurve" smooth="yes"/>
      <point x="717.0" y="1010.0" type="line" smooth="yes"/>
      <point x="1012.0" y="1010.0"/>
      <point x="1275.0" y="777.0"/>
      <point x="1303.0" y="534.0" type="qcurve" smooth="yes"/>
      <point x="1312.0" y="559.0" type="line"/>
      <point x="47.0" y="559.0" type="line"/>
      <point x="47.0" y="533.0" type="line"/>
      <point x="1331.0" y="533.0" type="line"/>
      <point x="1328.0" y="548.0" type="line" smooth="yes"/>
      <point x="1302.0" y="794.0"/>
      <point x="1000.0" y="1029.0"/>
      <point x="708.0" y="1029.0" type="qcurve" smooth="yes"/>
      <point x="711.0" y="1029.0" type="line" smooth="yes"/>
      <point x="443.0" y="1029.0"/>
      <point x="65.0" y="736.0"/>
      <point x="65.0" y="485.0" type="qcurve" smooth="yes"/>
      <point x="65.0" y="480.0" type="line" smooth="yes"/>
      <point x="65.0" y="224.0"/>
      <point x="447.0" y="-43.0"/>
      <point x="704.0" y="-43.0" type="qcurve" smooth="yes"/>
      <point x="724.0" y="-43.0" type="line" smooth="yes"/>
      <point x="976.0" y="-43.0"/>
      <point x="1287.0" y="146.0"/>
      <point x="1328.0" y="296.0" type="qcurve" smooth="yes"/>
      <point x="1334.0" y="319.0" type="line"/>
    </contour>
  </outline>
</glyph>
<glyph name="equal" format="2">
  <advance width="1420.0"/>
  <outline>
    <contour>
      <point x="1366.0" y="533.0" type="line"/>
      <point x="60.0" y="533.0" type="line"/>
      <point x="60.0" y="515.0" type="line"/>
      <point x="1367.0" y="515.0" type="line"/>
    </contour>
    <contour>
      <point x="1367.0" y="945.0" type="line"/>
      <point x="60.0" y="945.0" type="line"/>
      <point x="60.0" y="925.0" type="line"/>
      <point x="1367.0" y="925.0" type="line"/>
    </contour>
  </outline>
</glyph>
<glyph name="exclam" format="2">
  <advance width="652.0"/>
  <outline>
    <contour>
      <point x="339.0" y="362.0" type="line"/>
      <point x="339.0" y="1500.0" type="line"/>
      <point x="313.0" y="1500.0" type="line"/>
      <point x="313.0" y="362.0" type="line"/>
    </contour>
    <contour>
      <point x="327.0" y="3.0" type="line" smooth="yes"/>
      <point x="326.0" y="3.0"/>
      <point x="327.0" y="25.0"/>
      <point x="327.0" y="57.0" type="qcurve" smooth="yes"/>
      <point x="327.0" y="81.0" type="line" smooth="yes"/>
      <point x="327.0" y="117.0"/>
      <point x="328.0" y="136.0"/>
      <point x="327.0" y="136.0" type="qcurve" smooth="yes"/>
      <point x="327.0" y="136.0" type="line" smooth="yes"/>
      <point x="326.0" y="136.0"/>
      <point x="325.0" y="117.0"/>
      <point x="325.0" y="81.0" type="qcurve" smooth="yes"/>
      <point x="325.0" y="57.0" type="line" smooth="yes"/>
      <point x="325.0" y="21.0"/>
      <point x="326.0" y="3.0"/>
      <point x="327.0" y="3.0" type="qcurve" smooth="yes"/>
    </contour>
  </outline>
</glyph>
<glyph name="four" format="2">
  <advance width="1356.0"/>
  <outline>
    <contour>
      <point x="988.0" y="0.0" type="line"/>
      <point x="988.0" y="1510.0" type="line"/>
      <point x="960.0" y="1507.0" type="line"/>
      <point x="960.0" y="2.0" type="line"/>
    </contour>
    <contour>
      <point x="1315.0" y="493.0" type="line"/>
      <point x="1315.0" y="518.0" type="line"/>
      <point x="46.0" y="518.0" type="line"/>
      <point x="30.0" y="520.0" type="line"/>
      <point x="930.0" y="1460.0" type="line"/>
      <point x="919.0" y="1468.0" type="line"/>
      <point x="14.0" y="495.0" type="line"/>
    </contour>
  </outline>
</glyph>
<glyph name="hyphen" format="2">
  <advance width="1572.0"/>
  <outline>
    <contour>
      <point x="1306.0" y="788.0" type="line"/>
      <point x="266.0" y="788.0" type="line"/>
      <point x="266.0" y="765.0" type="line"/>
      <point x="1306.0" y="765.0" type="line"/>
    </contour>
  </outline>
</glyph>
<glyph name="i" format="2">
  <advance width="390.0"/>
  <outline>
    <contour>
      <point x="194.0" y="0.0" type="line"/>
      <point x="194.0" y="980.0" type="line"/>
      <point x="159.0" y="980.0" type="line"/>
      <point x="159.0" y="0.0" type="line"/>
    </contour>
    <contour>
      <point x="177.0" y="1364.0" type="line" smooth="yes"/>
      <point x="183.0" y="1364.0"/>
      <point x="188.0" y="1370.0"/>
      <point x="188.0" y="1376.0" type="qcurve" smooth="yes"/>
      <point x="188.0" y="1377.0" type="line" smooth="yes"/>
      <point x="188.0" y="1383.0"/>
      <point x="183.0" y="1390.0"/>
      <point x="177.0" y="1390.0" type="qcurve" smooth="yes"/>
      <point x="177.0" y="1390.0" type="line" smooth="yes"/>
      <point x="171.0" y="1390.0"/>
      <point x="166.0" y="1383.0"/>
      <point x="166.0" y="1377.0" type="qcurve" smooth="yes"/>
      <point x="166.0" y="1376.0" type="line" smooth="yes"/>
      <point x="166.0" y="1371.0"/>
      <point x="172.0" y="1364.0"/>
      <point x="177.0" y="1364.0" type="qcurve" smooth="yes"/>
    </contour>
    <contour>
      <point x="212.0" y="945.0" type="line"/>
      <point x="171.0" y="925.0" type="line"/>
      <point x="171.0" y="960.0" type="line"/>
      <point x="212.0" y="980.0" type="line"/>
    </contour>
  </outline>
</glyph>
<glyph name="j" format="2">
  <advance width="401.0"/>
  <outline>
    <contour>
      <point x="196.0" y="-69.0" type="line" smooth="yes"/>
      <point x="196.0" y="-291.0"/>
      <point x="12.0" y="-500.0"/>
      <point x="-198.0" y="-500.0" type="qcurve" smooth="yes"/>
      <point x="-273.0" y="-500.0"/>
      <point x="-355.0" y="-490.0"/>
      <point x="-384.0" y="-482.0" type="qcurve"/>
      <point x="-394.0" y="-509.0" type="line"/>
      <point x="-365.0" y="-515.0"/>
      <point x="-259.0" y="-532.0"/>
      <point x="-222.0" y="-532.0" type="qcurve" smooth="yes"/>
      <point x="-4.0" y="-532.0"/>
      <point x="231.0" y="-299.0"/>
      <point x="231.0" y="-36.0" type="qcurve" smooth="yes"/>
      <point x="231.0" y="980.0" type="line"/>
      <point x="196.0" y="980.0" type="line"/>
    </contour>
    <contour>
      <point x="214.0" y="1364.0" type="line" smooth="yes"/>
      <point x="220.0" y="1364.0"/>
      <point x="225.0" y="1370.0"/>
      <point x="225.0" y="1376.0" type="qcurve" smooth="yes"/>
      <point x="225.0" y="1377.0" type="line" smooth="yes"/>
      <point x="225.0" y="1383.0"/>
      <point x="220.0" y="1390.0"/>
      <point x="214.0" y="1390.0" type="qcurve" smooth="yes"/>
      <point x="214.0" y="1390.0" type="line" smooth="yes"/>
      <point x="208.0" y="1390.0"/>
      <point x="203.0" y="1383.0"/>
      <point x="203.0" y="1377.0" type="qcurve" smooth="yes"/>
      <point x="203.0" y="1376.0" type="line" smooth="yes"/>
      <point x="203.0" y="1371.0"/>
      <point x="209.0" y="1364.0"/>
      <point x="214.0" y="1364.0" type="qcurve" smooth="yes"/>
    </contour>
    <contour>
      <point x="263.0" y="945.0" type="line"/>
      <point x="233.0" y="925.0" type="line"/>
      <point x="233.0" y="960.0" type="line"/>
      <point x="263.0" y="980.0" type="line"/>
    </contour>
  </outline>
</glyph>
<glyph name="k" format="2">
  <advance width="1246.0"/>
  <outline>
    <contour>
      <point x="189.0" y="0.0" type="line"/>
      <point x="189.0" y="1500.0" type="line"/>
      <point x="155.0" y="1500.0" type="line"/>
      <point x="155.0" y="0.0" type="line"/>
    </contour>
    <contour>
      <point x="712.0" y="677.0" type="line"/>
      <point x="137.0" y="217.0" type="line"/>
      <point x="137.0" y="222.0" type="line"/>
      <point x="539.0" y="525.0" type="line"/>
      <point x="1210.0" y="980.0" type="line"/>
      <point x="1201.0" y="980.0" type="line"/>
      <point x="700.0" y="652.0" type="line"/>
    </contour>
    <contour>
      <point x="690.0" y="625.0" type="line"/>
      <point x="1229.0" y="0.0" type="line"/>
      <point x="1249.0" y="0.0" type="line"/>
      <point x="719.0" y="648.0" type="line"/>
    </contour>
  </outline>
</glyph>
<glyph name="m" format="2">
  <advance width="2185.0"/>
  <outline>
    <contour>
      <point x="212.0" y="0.0" type="line"/>
      <point x="212.0" y="980.0" type="line"/>
      <point x="178.0" y="980.0" type="line"/>
      <point x="178.0" y="0.0" type="line"/>
    </contour>
    <contour>
      <point x="194.0" y="785.0" type="line"/>
      <point x="222.0" y="844.0"/>
      <point x="542.0" y="1012.0"/>
      <point x="739.0" y="1012.0" type="qcurve" smooth="yes"/>
      <point x="907.0" y="1012.0"/>
      <point x="1091.0" y="790.0"/>
      <point x="1093.0" y="586.0" type="qcurve" smooth="yes"/>
      <point x="1093.0" y="0.0" type="line"/>
      <point x="1127.0" y="0.0" type="line"/>
      <point x="1127.0" y="621.0" type="line" smooth="yes"/>
      <point x="1127.0" y="849.0"/>
      <point x="883.0" y="1043.0"/>
      <point x="725.0" y="1043.0" type="qcurve" smooth="yes"/>
      <point x="568.0" y="1043.0"/>
      <point x="248.0" y="910.0"/>
      <point x="180.0" y="797.0" type="qcurve"/>
    </contour>
    <contour>
      <point x="1066.0" y="789.0" type="line"/>
      <point x="1096.0" y="856.0"/>
      <point x="1408.0" y="1012.0"/>
      <point x="1612.0" y="1012.0" type="qcurve" smooth="yes"/>
      <point x="1769.0" y="1012.0"/>
      <point x="1991.0" y="781.0"/>
      <point x="1993.0" y="577.0" type="qcurve" smooth="yes"/>
      <point x="1993.0" y="0.0" type="line"/>
      <point x="2027.0" y="0.0" type="line"/>
      <point x="2027.0" y="618.0" type="line" smooth="yes"/>
      <point x="2027.0" y="847.0"/>
      <point x="1748.0" y="1042.0"/>
      <point x="1600.0" y="1042.0" type="qcurve" smooth="yes"/>
      <point x="1443.0" y="1042.0"/>
      <point x="1130.0" y="927.0"/>
      <point x="1057.0" y="809.0" type="qcurve"/>
    </contour>
  </outline>
</glyph>
<glyph name="n" format="2">
  <advance width="1364.0"/>
  <outline>
    <contour>
      <point x="212.0" y="0.0" type="line"/>
      <point x="212.0" y="980.0" type="line"/>
      <point x="178.0" y="980.0" type="line"/>
      <point x="178.0" y="0.0" type="line"/>
    </contour>
    <contour>
      <point x="197.0" y="805.0" type="line"/>
      <point x="212.0" y="867.0"/>
      <point x="536.0" y="1012.0"/>
      <point x="724.0" y="1012.0" type="qcurve" smooth="yes"/>
      <point x="932.0" y="1012.0"/>
      <point x="1172.0" y="781.0"/>
      <point x="1172.0" y="577.0" type="qcurve" smooth="yes"/>
      <point x="1171.0" y="0.0" type="line"/>
      <point x="1205.0" y="0.0" type="line"/>
      <point x="1205.0" y="618.0" type="line" smooth="yes"/>
      <point x="1205.0" y="841.0"/>
      <point x="911.0" y="1042.0"/>
      <point x="705.0" y="1042.0" type="qcurve" smooth="yes"/>
      <point x="564.0" y="1042.0"/>
      <point x="245.0" y="925.0"/>
      <point x="187.0" y="819.0" type="qcurve"/>
    </contour>
  </outline>
</glyph>
<glyph name="numbersign" format="2">
  <advance width="1412.0"/>
  <outline>
    <contour>
      <point x="316.0" y="0.0" type="line"/>
      <point x="576.0" y="1500.0" type="line"/>
      <point x="541.0" y="1500.0" type="line"/>
      <point x="281.0" y="0.0" type="line"/>
    </contour>
    <contour>
      <point x="1296.0" y="550.0" type="line"/>
      <point x="46.0" y="550.0" type="line"/>
      <point x="46.0" y="520.0" type="line"/>
      <point x="1296.0" y="520.0" type="line"/>
    </contour>
    <contour>
      <point x="1346.0" y="965.0" type="line"/>
      <point x="96.0" y="965.0" type="line"/>
      <point x="96.0" y="935.0" type="line"/>
      <point x="1346.0" y="935.0" type="line"/>
    </contour>
    <contour>
      <point x="876.0" y="0.0" type="line"/>
      <point x="1136.0" y="1500.0" type="line"/>
      <point x="1101.0" y="1500.0" type="line"/>
      <point x="841.0" y="0.0" type="line"/>
    </contour>
  </outline>
</glyph>
<glyph name="o" format="2">
  <advance width="1482.0"/>
  <outline>
    <contour>
      <point x="734.0" y="-26.0" type="line" smooth="yes"/>
      <point x="429.0" y="-26.0"/>
      <point x="92.0" y="246.0"/>
      <point x="92.0" y="486.0" type="qcurve" smooth="yes"/>
      <point x="92.0" y="478.0" type="line" smooth="yes"/>
      <point x="92.0" y="724.0"/>
      <point x="434.0" y="1012.0"/>
      <point x="730.0" y="1012.0" type="qcurve" smooth="yes"/>
      <point x="736.0" y="1012.0" type="line" smooth="yes"/>
      <point x="1051.0" y="1012.0"/>
      <point x="1390.0" y="726.0"/>
      <point x="1390.0" y="481.0" type="qcurve" smooth="yes"/>
      <point x="1390.0" y="494.0" type="line" smooth="yes"/>
      <point x="1390.0" y="247.0"/>
      <point x="1047.0" y="-26.0"/>
      <point x="740.0" y="-26.0" type="qcurve" smooth="yes"/>
    </contour>
    <contour>
      <point x="734.0" y="-34.0" type="line" smooth="yes"/>
      <point x="1037.0" y="-34.0"/>
      <point x="1428.0" y="245.0"/>
      <point x="1428.0" y="478.0" type="qcurve" smooth="yes"/>
      <point x="1428.0" y="493.0" type="line" smooth="yes"/>
      <point x="1428.0" y="728.0"/>
      <point x="1049.0" y="1027.0"/>
      <point x="734.0" y="1027.0" type="qcurve" smooth="yes"/>
      <point x="727.0" y="1027.0" type="line" smooth="yes"/>
      <point x="413.0" y="1027.0"/>
      <point x="54.0" y="737.0"/>
      <point x="54.0" y="494.0" type="qcurve" smooth="yes"/>
      <point x="54.0" y="480.0" type="line" smooth="yes"/>
      <point x="54.0" y="246.0"/>
      <point x="424.0" y="-34.0"/>
      <point x="727.0" y="-34.0" type="qcurve" smooth="yes"/>
    </contour>
  </outline>
</glyph>
<glyph name="question" format="2">
  <advance width="1197.0"/>
  <outline>
    <contour>
      <point x="554.0" y="3.0" type="line" smooth="yes"/>
      <point x="554.0" y="3.0"/>
      <point x="553.0" y="25.0"/>
      <point x="553.0" y="57.0" type="qcurve" smooth="yes"/>
      <point x="553.0" y="81.0" type="line" smooth="yes"/>
      <point x="553.0" y="117.0"/>
      <point x="555.0" y="136.0"/>
      <point x="554.0" y="136.0" type="qcurve" smooth="yes"/>
      <point x="552.0" y="136.0" type="line" smooth="yes"/>
      <point x="552.0" y="136.0"/>
      <point x="552.0" y="117.0"/>
      <point x="552.0" y="81.0" type="qcurve" smooth="yes"/>
      <point x="552.0" y="57.0" type="line" smooth="yes"/>
      <point x="552.0" y="21.0"/>
      <point x="551.0" y="3.0"/>
      <point x="552.0" y="3.0" type="qcurve" smooth="yes"/>
    </contour>
    <contour>
      <point x="528.0" y="362.0" type="line"/>
      <point x="550.0" y="362.0" type="line"/>
      <point x="552.0" y="684.0" type="line"/>
      <point x="806.0" y="699.0"/>
      <point x="1181.0" y="959.0"/>
      <point x="1181.0" y="1139.0" type="qcurve" smooth="yes"/>
      <point x="1181.0" y="1141.0" type="line" smooth="yes"/>
      <point x="1181.0" y="1337.0"/>
      <point x="862.0" y="1542.0"/>
      <point x="596.0" y="1542.0" type="qcurve" smooth="yes"/>
      <point x="587.0" y="1542.0" type="line" smooth="yes"/>
      <point x="296.0" y="1542.0"/>
      <point x="-24.0" y="1327.0"/>
      <point x="-19.0" y="1135.0" type="qcurve" smooth="yes"/>
      <point x="-19.0" y="1092.0" type="line"/>
      <point x="13.0" y="1094.0" type="line"/>
      <point x="13.0" y="1125.0" type="line" smooth="yes"/>
      <point x="13.0" y="1313.0"/>
      <point x="339.0" y="1523.0"/>
      <point x="587.0" y="1523.0" type="qcurve" smooth="yes"/>
      <point x="595.0" y="1523.0" type="line" smooth="yes"/>
      <point x="849.0" y="1523.0"/>
      <point x="1163.0" y="1321.0"/>
      <point x="1163.0" y="1132.0" type="qcurve" smooth="yes"/>
      <point x="1163.0" y="1134.0" type="line" smooth="yes"/>
      <point x="1163.0" y="949.0"/>
      <point x="834.0" y="702.0"/>
      <point x="529.0" y="679.0" type="qcurve"/>
    </contour>
  </outline>
</glyph>
<glyph name="semicolon" format="2">
  <advance width="847.0"/>
  <outline>
    <contour>
      <point x="412.0" y="816.0" type="line" smooth="yes"/>
      <point x="417.0" y="816.0"/>
      <point x="420.0" y="845.0"/>
      <point x="420.0" y="876.0" type="qcurve" smooth="yes"/>
      <point x="420.0" y="902.0" type="line" smooth="yes"/>
      <point x="420.0" y="933.0"/>
      <point x="419.0" y="963.0"/>
      <point x="413.0" y="963.0" type="qcurve" smooth="yes"/>
      <point x="411.0" y="963.0" type="line" smooth="yes"/>
      <point x="406.0" y="963.0"/>
      <point x="403.0" y="933.0"/>
      <point x="403.0" y="902.0" type="qcurve" smooth="yes"/>
      <point x="403.0" y="876.0" type="line" smooth="yes"/>
      <point x="403.0" y="846.0"/>
      <point x="405.0" y="816.0"/>
      <point x="411.0" y="816.0" type="qcurve" smooth="yes"/>
    </contour>
    <contour>
      <point x="137.0" y="-90.0" type="line"/>
      <point x="370.0" y="129.0" type="line" smooth="yes"/>
      <point x="398.0" y="146.0"/>
      <point x="437.0" y="179.0"/>
      <point x="429.0" y="179.0" type="qcurve" smooth="yes"/>
      <point x="428.0" y="179.0" type="line" smooth="yes"/>
      <point x="438.0" y="179.0"/>
      <point x="457.0" y="138.0"/>
      <point x="430.0" y="94.0" type="qcurve" smooth="yes"/>
      <point x="425.0" y="89.0" type="line" smooth="yes"/>
      <point x="408.0" y="61.0"/>
      <point x="171.0" y="-66.0"/>
      <point x="107.0" y="-112.0" type="qcurve"/>
    </contour>
  </outline>
</glyph>
<glyph name="seven" format="2">
  <advance width="1203.0"/>
  <outline>
    <contour>
      <point x="18.0" y="1500.0" type="line"/>
      <point x="1145.0" y="1500.0" type="line"/>
      <point x="1153.0" y="1527.0" type="line"/>
      <point x="340.0" y="0.0" type="line"/>
      <point x="357.0" y="0.0" type="line"/>
      <point x="1166.0" y="1523.0" type="line"/>
      <point x="19.0" y="1523.0" type="line"/>
    </contour>
  </outline>
</glyph>
<glyph name="slash" format="2">
  <advance width="892.0"/>
  <outline>
    <contour>
      <point x="-54.0" y="0.0" type="line"/>
      <point x="966.0" y="1500.0" type="line"/>
      <point x="962.0" y="1500.0" type="line"/>
      <point x="-58.0" y="0.0" type="line"/>
    </contour>
  </outline>
</glyph>
<glyph name="t" format="2">
  <advance width="672.0"/>
  <outline>
    <contour>
      <point x="707.0" y="1002.0" type="line"/>
      <point x="6.0" y="1002.0" type="line"/>
      <point x="6.0" y="980.0" type="line"/>
      <point x="707.0" y="980.0" type="line"/>
    </contour>
    <contour>
      <point x="294.0" y="267.0" type="line" smooth="yes"/>
      <point x="294.0" y="126.0"/>
      <point x="413.0" y="-35.0"/>
      <point x="503.0" y="-35.0" type="qcurve" smooth="yes"/>
      <point x="573.0" y="-35.0"/>
      <point x="652.0" y="-4.0"/>
      <point x="631.0" y="-1.0" type="qcurve"/>
      <point x="696.0" y="30.0" type="line"/>
      <point x="696.0" y="17.0"/>
      <point x="639.0" y="-16.0"/>
      <point x="607.0" y="-16.0" type="qcurve"/>
      <point x="499.0" y="-16.0"/>
      <point x="327.0" y="193.0"/>
      <point x="327.0" y="370.0" type="qcurve" smooth="yes"/>
      <point x="327.0" y="1253.0" type="line"/>
      <point x="294.0" y="1253.0" type="line"/>
    </contour>
  </outline>
</glyph>
<glyph name="v" format="2">
  <advance width="1196.0"/>
  <outline>
    <contour>
      <point x="594.0" y="0.0" type="line"/>
      <point x="-10.0" y="980.0" type="line"/>
      <point x="-36.0" y="980.0" type="line"/>
      <point x="598.0" y="-90.0" type="line"/>
      <point x="1217.0" y="980.0" type="line"/>
      <point x="1206.0" y="980.0" type="line"/>
      <point x="600.0" y="0.0" type="line"/>
    </contour>
  </outline>
</glyph>
<glyph name="w" format="2">
  <advance width="1828.0"/>
  <outline>
    <contour>
      <point x="459.0" y="-10.0" type="line"/>
      <point x="10.0" y="980.0" type="line"/>
      <point x="-26.0" y="980.0" type="line"/>
      <point x="474.0" y="-65.0" type="line"/>
      <point x="898.0" y="990.0" type="line"/>
      <point x="929.0" y="990.0" type="line"/>
      <point x="1345.0" y="-67.0" type="line"/>
      <point x="1847.0" y="980.0" type="line"/>
      <point x="1817.0" y="980.0" type="line"/>
      <point x="1351.0" y="-10.0" type="line"/>
      <point x="1331.0" y="-10.0" type="line"/>
      <point x="922.0" y="1162.0" type="line"/>
      <point x="479.0" y="-10.0" type="line"/>
    </contour>
  </outline>
</glyph>
<glyph name="x" format="2">
  <advance width="1160.0"/>
  <outline>
    <contour>
      <point x="22.0" y="0.0" type="line"/>
      <point x="1098.0" y="980.0" type="line"/>
      <point x="1099.0" y="980.0" type="line"/>
      <point x="23.0" y="0.0" type="line"/>
    </contour>
    <contour>
      <point x="1143.0" y="0.0" type="line"/>
      <point x="70.0" y="980.0" type="line"/>
      <point x="64.0" y="980.0" type="line"/>
      <point x="1138.0" y="0.0" type="line"/>
    </contour>
  </outline>
</glyph>
<glyph name="y" format="2">
  <advance width="1206.0"/>
  <outline>
    <contour>
      <point x="609.0" y="-13.0" type="qcurve"/>
      <point x="-1.0" y="980.0" type="line"/>
      <point x="-27.0" y="980.0" type="line"/>
      <point x="609.0" y="-106.0" type="line"/>
      <point x="1225.0" y="980.0" type="line"/>
      <point x="1216.0" y="980.0" type="line"/>
      <point x="594.0" y="-33.0" type="line" smooth="yes"/>
      <point x="448.0" y="-287.0"/>
      <point x="202.0" y="-500.0"/>
      <point x="131.0" y="-500.0" type="qcurve" smooth="yes"/>
      <point x="78.0" y="-500.0"/>
      <point x="23.0" y="-500.0"/>
      <point x="0.0" y="-493.0" type="qcurve"/>
      <point x="12.0" y="-511.0" type="line"/>
      <point x="33.0" y="-516.0"/>
      <point x="94.0" y="-520.0"/>
      <point x="132.0" y="-520.0" type="qcurve" smooth="yes"/>
      <point x="205.0" y="-520.0"/>
      <point x="519.0" y="-224.0"/>
    </contour>
  </outline>
</glyph>
<glyph name="z" format="2">
  <advance width="1146.0"/>
  <outline>
    <contour>
      <point x="1116.0" y="0.0" type="line"/>
      <point x="56.0" y="0.0" type="line"/>
      <point x="51.0" y="-23.0" type="line"/>
      <point x="1071.0" y="1013.0" type="line"/>
      <point x="74.0" y="1013.0" type="line"/>
      <point x="74.0" y="980.0" type="line"/>
      <point x="1096.0" y="980.0" type="line"/>
      <point x="1096.0" y="1013.0" type="line"/>
      <point x="58.0" y="-33.0" type="line"/>
      <point x="1116.0" y="-33.0" type="line"/>
    </contour>
  </outline>
</glyph>
